<svg width="411" height="731" viewBox="0 0 411 731" fill="none" xmlns="http://www.w3.org/2000/svg">
<g clip-path="url(#clip0)">
<rect width="411" height="731" fill="#FDFDFD"/>
<rect x="103" y="242" width="211" height="171" fill="#CC2C2C"/>
<path d="M158.475 309.1L155.346 312.352V321H151.971V295.406H155.346V308.062L166.719 295.406H170.797L160.725 306.709L171.588 321H167.545L158.475 309.1ZM188.674 314.32H177.951L175.543 321H172.062L181.836 295.406H184.789L194.58 321H191.117L188.674 314.32ZM178.971 311.543H187.672L183.312 299.572L178.971 311.543ZM200.557 318.24H215.199V321H196.566V318.469L210.594 298.184H196.795V295.406H214.637V297.885L200.557 318.24ZM233.955 314.32H223.232L220.824 321H217.344L227.117 295.406H230.07L239.861 321H236.398L233.955 314.32ZM224.252 311.543H232.953L228.594 299.572L224.252 311.543ZM156.008 344.395C154.078 343.84 152.672 343.16 151.789 342.355C150.914 341.543 150.477 340.543 150.477 339.355C150.477 338.012 151.012 336.902 152.082 336.027C153.16 335.145 154.559 334.703 156.277 334.703C157.449 334.703 158.492 334.93 159.406 335.383C160.328 335.836 161.039 336.461 161.539 337.258C162.047 338.055 162.301 338.926 162.301 339.871H160.039C160.039 338.84 159.711 338.031 159.055 337.445C158.398 336.852 157.473 336.555 156.277 336.555C155.168 336.555 154.301 336.801 153.676 337.293C153.059 337.777 152.75 338.453 152.75 339.32C152.75 340.016 153.043 340.605 153.629 341.09C154.223 341.566 155.227 342.004 156.641 342.402C158.062 342.801 159.172 343.242 159.969 343.727C160.773 344.203 161.367 344.762 161.75 345.402C162.141 346.043 162.336 346.797 162.336 347.664C162.336 349.047 161.797 350.156 160.719 350.992C159.641 351.82 158.199 352.234 156.395 352.234C155.223 352.234 154.129 352.012 153.113 351.566C152.098 351.113 151.312 350.496 150.758 349.715C150.211 348.934 149.938 348.047 149.938 347.055H152.199C152.199 348.086 152.578 348.902 153.336 349.504C154.102 350.098 155.121 350.395 156.395 350.395C157.582 350.395 158.492 350.152 159.125 349.668C159.758 349.184 160.074 348.523 160.074 347.688C160.074 346.852 159.781 346.207 159.195 345.754C158.609 345.293 157.547 344.84 156.008 344.395ZM178.344 352H176.082V344.113H167.48V352H165.23V334.938H167.48V342.273H176.082V334.938H178.344V352ZM195.465 344.02C195.465 345.691 195.184 347.152 194.621 348.402C194.059 349.645 193.262 350.594 192.23 351.25C191.199 351.906 189.996 352.234 188.621 352.234C187.277 352.234 186.086 351.906 185.047 351.25C184.008 350.586 183.199 349.645 182.621 348.426C182.051 347.199 181.758 345.781 181.742 344.172V342.941C181.742 341.301 182.027 339.852 182.598 338.594C183.168 337.336 183.973 336.375 185.012 335.711C186.059 335.039 187.254 334.703 188.598 334.703C189.965 334.703 191.168 335.035 192.207 335.699C193.254 336.355 194.059 337.312 194.621 338.57C195.184 339.82 195.465 341.277 195.465 342.941V344.02ZM193.227 342.918C193.227 340.895 192.82 339.344 192.008 338.266C191.195 337.18 190.059 336.637 188.598 336.637C187.176 336.637 186.055 337.18 185.234 338.266C184.422 339.344 184.004 340.844 183.98 342.766V344.02C183.98 345.98 184.391 347.523 185.211 348.648C186.039 349.766 187.176 350.324 188.621 350.324C190.074 350.324 191.199 349.797 191.996 348.742C192.793 347.68 193.203 346.16 193.227 344.184V342.918ZM201.09 345.32V352H198.84V334.938H205.133C207 334.938 208.461 335.414 209.516 336.367C210.578 337.32 211.109 338.582 211.109 340.152C211.109 341.809 210.59 343.086 209.551 343.984C208.52 344.875 207.039 345.32 205.109 345.32H201.09ZM201.09 343.48H205.133C206.336 343.48 207.258 343.199 207.898 342.637C208.539 342.066 208.859 341.246 208.859 340.176C208.859 339.16 208.539 338.348 207.898 337.738C207.258 337.129 206.379 336.812 205.262 336.789H201.09V343.48ZM213.793 339.742L212.562 338.898C213.289 337.883 213.664 336.812 213.688 335.688V334H215.832V335.523C215.824 336.305 215.629 337.086 215.246 337.867C214.871 338.641 214.387 339.266 213.793 339.742ZM224.516 348.637C224.516 348.051 224.293 347.598 223.848 347.277C223.41 346.949 222.641 346.668 221.539 346.434C220.445 346.199 219.574 345.918 218.926 345.59C218.285 345.262 217.809 344.871 217.496 344.418C217.191 343.965 217.039 343.426 217.039 342.801C217.039 341.762 217.477 340.883 218.352 340.164C219.234 339.445 220.359 339.086 221.727 339.086C223.164 339.086 224.328 339.457 225.219 340.199C226.117 340.941 226.566 341.891 226.566 343.047H224.387C224.387 342.453 224.133 341.941 223.625 341.512C223.125 341.082 222.492 340.867 221.727 340.867C220.938 340.867 220.32 341.039 219.875 341.383C219.43 341.727 219.207 342.176 219.207 342.73C219.207 343.254 219.414 343.648 219.828 343.914C220.242 344.18 220.988 344.434 222.066 344.676C223.152 344.918 224.031 345.207 224.703 345.543C225.375 345.879 225.871 346.285 226.191 346.762C226.52 347.23 226.684 347.805 226.684 348.484C226.684 349.617 226.23 350.527 225.324 351.215C224.418 351.895 223.242 352.234 221.797 352.234C220.781 352.234 219.883 352.055 219.102 351.695C218.32 351.336 217.707 350.836 217.262 350.195C216.824 349.547 216.605 348.848 216.605 348.098H218.773C218.812 348.824 219.102 349.402 219.641 349.832C220.188 350.254 220.906 350.465 221.797 350.465C222.617 350.465 223.273 350.301 223.766 349.973C224.266 349.637 224.516 349.191 224.516 348.637Z" fill="#FDFDFD"/>
<path d="M116.56 470.224H127.624V472.288H119.008V477.592H125.44V479.632H119.008V484.96H127.624V487H116.56V470.224ZM130.154 470.224H132.602V484.96H141.098V487H130.154V470.224ZM147.911 487.36C146.951 487.36 145.999 487.272 145.055 487.096C144.127 486.936 143.367 486.712 142.775 486.424V484.216C144.311 484.936 145.967 485.296 147.743 485.296C150.239 485.296 151.487 484.456 151.487 482.776C151.487 482.2 151.351 481.736 151.079 481.384C150.807 481.032 150.415 480.728 149.903 480.472C149.391 480.2 148.559 479.832 147.407 479.368C145.823 478.728 144.679 478.024 143.975 477.256C143.271 476.488 142.919 475.52 142.919 474.352C142.919 473.472 143.159 472.696 143.639 472.024C144.119 471.336 144.791 470.808 145.655 470.44C146.519 470.056 147.511 469.864 148.631 469.864C149.543 469.864 150.367 469.936 151.103 470.08C151.839 470.224 152.559 470.456 153.263 470.776V472.888C151.871 472.264 150.463 471.952 149.039 471.952C147.887 471.952 147.007 472.16 146.399 472.576C145.791 472.992 145.487 473.584 145.487 474.352C145.487 474.88 145.615 475.328 145.871 475.696C146.143 476.048 146.535 476.368 147.047 476.656C147.575 476.928 148.351 477.272 149.375 477.688C150.511 478.152 151.407 478.592 152.063 479.008C152.719 479.424 153.215 479.936 153.551 480.544C153.903 481.136 154.079 481.88 154.079 482.776C154.079 484.232 153.559 485.36 152.519 486.16C151.479 486.96 149.943 487.36 147.911 487.36ZM165.06 487.36C163.396 487.36 161.892 487 160.548 486.28C159.204 485.544 158.148 484.512 157.38 483.184C156.612 481.856 156.228 480.336 156.228 478.624C156.228 476.912 156.612 475.392 157.38 474.064C158.148 472.736 159.204 471.704 160.548 470.968C161.892 470.232 163.396 469.864 165.06 469.864C166.724 469.864 168.228 470.232 169.572 470.968C170.916 471.704 171.972 472.736 172.74 474.064C173.508 475.392 173.892 476.912 173.892 478.624C173.892 480.336 173.508 481.856 172.74 483.184C171.972 484.512 170.916 485.544 169.572 486.28C168.228 487 166.724 487.36 165.06 487.36ZM165.06 485.152C166.244 485.152 167.316 484.888 168.276 484.36C169.252 483.816 170.02 483.056 170.58 482.08C171.14 481.088 171.42 479.936 171.42 478.624C171.42 477.328 171.14 476.192 170.58 475.216C170.036 474.224 169.284 473.464 168.324 472.936C167.364 472.392 166.292 472.12 165.108 472.12C163.908 472.12 162.82 472.384 161.844 472.912C160.884 473.44 160.116 474.2 159.54 475.192C158.98 476.184 158.7 477.328 158.7 478.624C158.7 479.936 158.98 481.088 159.54 482.08C160.1 483.056 160.86 483.816 161.82 484.36C162.796 484.888 163.876 485.152 165.06 485.152ZM176.537 470.224H178.985V487H176.537V470.224ZM179.105 478.456L186.761 470.224H189.737L182.081 478.456L190.217 487H187.241L179.105 478.456ZM201.498 470.224H212.562V472.288H203.946V477.64H210.378V479.584H203.946V487H201.498V470.224ZM133.843 523.36C132.115 523.36 130.579 523 129.235 522.28C127.891 521.56 126.843 520.544 126.091 519.232C125.339 517.904 124.963 516.368 124.963 514.624C124.963 512.88 125.339 511.344 126.091 510.016C126.843 508.688 127.891 507.664 129.235 506.944C130.579 506.224 132.115 505.864 133.843 505.864C136.163 505.864 138.091 506.44 139.627 507.592V509.944C138.235 508.728 136.379 508.12 134.059 508.12C132.795 508.12 131.659 508.384 130.651 508.912C129.643 509.44 128.851 510.2 128.275 511.192C127.715 512.168 127.435 513.312 127.435 514.624C127.435 515.936 127.715 517.088 128.275 518.08C128.835 519.072 129.611 519.832 130.603 520.36C131.595 520.888 132.715 521.152 133.963 521.152C135.419 521.152 136.611 520.856 137.539 520.264V515.872H134.347V513.88H139.987V521.56C139.235 522.184 138.347 522.64 137.323 522.928C136.315 523.216 135.155 523.36 133.843 523.36ZM142.623 506.224H153.687V508.288H145.071V513.592H151.503V515.632H145.071V520.96H153.687V523H142.623V506.224ZM156.216 506.224H163.92C165.408 506.224 166.56 506.608 167.376 507.376C168.192 508.144 168.6 509.264 168.6 510.736C168.6 511.568 168.4 512.304 168 512.944C167.616 513.568 167.104 514.032 166.464 514.336C168.256 514.864 169.152 516.168 169.152 518.248C169.152 519.224 168.936 520.072 168.504 520.792C168.088 521.496 167.512 522.04 166.776 522.424C166.04 522.808 165.224 523 164.328 523H156.216V506.224ZM163.608 513.424C164.392 513.424 165.008 513.208 165.456 512.776C165.904 512.344 166.128 511.704 166.128 510.856C166.128 509.88 165.904 509.2 165.456 508.816C165.024 508.416 164.352 508.216 163.44 508.216H158.664V513.424H163.608ZM163.776 521.008C164.72 521.008 165.44 520.8 165.936 520.384C166.432 519.968 166.68 519.256 166.68 518.248C166.68 517.24 166.416 516.52 165.888 516.088C165.376 515.656 164.6 515.44 163.56 515.44H158.664V521.008H163.776ZM171.802 506.224H174.25V523H171.802V506.224ZM174.37 514.456L182.026 506.224H185.002L177.346 514.456L185.482 523H182.506L174.37 514.456Z" fill="black"/>
<path d="M289.56 718V717.706L290.848 717.496V707.304L289.56 707.108V706.8H293.676V707.108L292.388 707.304V712.344L296.938 707.696L295.412 707.108V706.8H298.646V707.108L297.498 707.696L294.32 710.888L298.8 717.496L299.752 717.706V718H295.622V717.706L296.896 717.51L293.228 711.98L292.388 712.834V717.496L293.676 717.706V718H289.56ZM298.944 718V717.706L300.316 717.146L304.362 706.52H304.586L308.408 717.496L309.696 717.706V718H305.58V717.706L306.728 717.524L305.538 714.206H301.814L300.68 717.146L301.94 717.706V718H298.944ZM301.926 713.912H305.44L303.76 708.984L301.926 713.912ZM309.86 718V717.664L316.412 707.15H312.072L310.63 709.95H310.266L310.602 706.8H318.302V707.15L311.736 717.664H316.636L318.078 714.654H318.442L318.106 718H309.86ZM318.59 718V717.706L319.962 717.146L324.008 706.52H324.232L328.054 717.496L329.342 717.706V718H325.226V717.706L326.374 717.524L325.184 714.206H321.46L320.326 717.146L321.586 717.706V718H318.59ZM321.572 713.912H325.086L323.406 708.984L321.572 713.912ZM337.393 718.28C336.525 718.28 335.671 718.033 334.831 717.538L333.641 718.14H333.333V714.542H333.641L334.845 717.146C335.619 717.697 336.506 717.972 337.505 717.972C338.326 717.972 339.003 717.757 339.535 717.328C340.076 716.889 340.347 716.278 340.347 715.494C340.347 714.925 340.174 714.477 339.829 714.15C339.483 713.814 338.923 713.548 338.149 713.352L335.825 712.75C335.013 712.535 334.401 712.171 333.991 711.658C333.58 711.135 333.375 710.519 333.375 709.81C333.375 709.166 333.501 708.597 333.753 708.102C334.014 707.598 334.392 707.211 334.887 706.94C335.381 706.66 335.969 706.52 336.651 706.52C337.5 706.52 338.261 706.665 338.933 706.954L339.955 706.52H340.263V709.376H339.955L338.947 707.332C338.247 706.996 337.486 706.828 336.665 706.828C335.853 706.828 335.213 707.038 334.747 707.458C334.28 707.869 334.047 708.415 334.047 709.096C334.047 709.6 334.21 709.997 334.537 710.286C334.873 710.575 335.363 710.804 336.007 710.972L338.513 711.63C339.325 711.835 339.927 712.19 340.319 712.694C340.72 713.189 340.921 713.945 340.921 714.962C340.921 715.998 340.599 716.81 339.955 717.398C339.32 717.986 338.466 718.28 337.393 718.28ZM342.279 718V717.706L343.567 717.496V707.304L342.279 707.108V706.8H346.395V707.108L345.107 707.304V711.896H350.427V707.304L349.125 707.108V706.8H353.269V707.108L351.967 707.304V717.496L353.269 717.706V718H349.125V717.706L350.427 717.496V712.246H345.107V717.496L346.395 717.706V718H342.279ZM359.866 718.28C358.849 718.28 357.939 718.033 357.136 717.538C356.333 717.043 355.708 716.353 355.26 715.466C354.812 714.57 354.588 713.548 354.588 712.4C354.588 711.252 354.812 710.235 355.26 709.348C355.708 708.452 356.333 707.757 357.136 707.262C357.939 706.767 358.849 706.52 359.866 706.52C360.883 706.52 361.793 706.767 362.596 707.262C363.399 707.757 364.024 708.452 364.472 709.348C364.92 710.235 365.144 711.252 365.144 712.4C365.144 713.548 364.92 714.57 364.472 715.466C364.024 716.353 363.399 717.043 362.596 717.538C361.793 718.033 360.883 718.28 359.866 718.28ZM359.866 717.958C360.538 717.958 361.14 717.781 361.672 717.426C362.213 717.071 362.638 716.558 362.946 715.886C363.254 715.205 363.408 714.402 363.408 713.478V711.322C363.408 710.398 363.254 709.6 362.946 708.928C362.638 708.247 362.213 707.729 361.672 707.374C361.14 707.019 360.538 706.842 359.866 706.842C359.185 706.842 358.578 707.019 358.046 707.374C357.514 707.729 357.094 708.247 356.786 708.928C356.478 709.6 356.324 710.398 356.324 711.322V713.478C356.324 714.402 356.478 715.205 356.786 715.886C357.094 716.558 357.514 717.071 358.046 717.426C358.578 717.781 359.185 717.958 359.866 717.958ZM366.464 717.706L367.752 717.496V707.304L366.464 707.108V706.8H370.86C372.242 706.8 373.268 707.094 373.94 707.682C374.612 708.27 374.948 709.119 374.948 710.23C374.948 711.341 374.612 712.19 373.94 712.778C373.268 713.366 372.242 713.66 370.86 713.66H369.292V717.496L370.58 717.706V718H366.464V717.706ZM370.664 713.324C372.391 713.324 373.254 712.386 373.254 710.51V709.95C373.254 708.083 372.391 707.15 370.664 707.15H369.292V713.324H370.664ZM376.203 710.23C376.483 710.062 376.735 709.829 376.959 709.53C377.192 709.222 377.309 708.914 377.309 708.606C377.309 708.522 377.285 708.457 377.239 708.41C377.192 708.354 377.122 708.326 377.029 708.326C376.795 708.326 376.595 708.247 376.427 708.088C376.268 707.92 376.189 707.719 376.189 707.486C376.189 707.253 376.268 707.061 376.427 706.912C376.595 706.753 376.795 706.674 377.029 706.674C377.355 706.674 377.612 706.795 377.799 707.038C377.995 707.271 378.093 707.579 378.093 707.962C378.093 708.485 377.948 708.961 377.659 709.39C377.379 709.81 376.945 710.165 376.357 710.454L376.203 710.23ZM383.59 718.28C382.722 718.28 381.868 718.033 381.028 717.538L379.838 718.14H379.53V714.542H379.838L381.042 717.146C381.816 717.697 382.703 717.972 383.702 717.972C384.523 717.972 385.2 717.757 385.732 717.328C386.273 716.889 386.544 716.278 386.544 715.494C386.544 714.925 386.371 714.477 386.026 714.15C385.68 713.814 385.12 713.548 384.346 713.352L382.022 712.75C381.21 712.535 380.598 712.171 380.188 711.658C379.777 711.135 379.572 710.519 379.572 709.81C379.572 709.166 379.698 708.597 379.95 708.102C380.211 707.598 380.589 707.211 381.084 706.94C381.578 706.66 382.166 706.52 382.848 706.52C383.697 706.52 384.458 706.665 385.13 706.954L386.152 706.52H386.46V709.376H386.152L385.144 707.332C384.444 706.996 383.683 706.828 382.862 706.828C382.05 706.828 381.41 707.038 380.944 707.458C380.477 707.869 380.244 708.415 380.244 709.096C380.244 709.6 380.407 709.997 380.734 710.286C381.07 710.575 381.56 710.804 382.204 710.972L384.71 711.63C385.522 711.835 386.124 712.19 386.516 712.694C386.917 713.189 387.118 713.945 387.118 714.962C387.118 715.998 386.796 716.81 386.152 717.398C385.517 717.986 384.663 718.28 383.59 718.28Z" fill="black"/>
</g>
<defs>
<clipPath id="clip0">
<rect width="411" height="731" fill="white"/>
</clipPath>
</defs>
</svg>
